<svg width="18" height="19" viewBox="0 0 18 19" fill="none" xmlns="http://www.w3.org/2000/svg">
<g clip-path="url(#clip0_1_1456)">
<path d="M8.99988 7.86359V11.349H13.8435C13.6308 12.47 12.9925 13.4191 12.0353 14.0573L14.9562 16.3236C16.658 14.7528 17.6398 12.4455 17.6398 9.70458C17.6398 9.06642 17.5826 8.45272 17.4762 7.86368L8.99988 7.86359Z" fill="#4285F4"/>
<path d="M3.95602 11.213L3.29725 11.7173L0.965393 13.5336C2.4463 16.4709 5.48153 18.5 8.99968 18.5C11.4296 18.5 13.4669 17.6982 14.956 16.3237L12.0351 14.0573C11.2333 14.5973 10.2105 14.9246 8.99968 14.9246C6.65969 14.9246 4.67157 13.3455 3.9597 11.2182L3.95602 11.213Z" fill="#34A853"/>
<path d="M0.965384 5.46637C0.351781 6.67723 0 8.04361 0 9.49995C0 10.9563 0.351781 12.3227 0.965384 13.5335C0.965384 13.5417 3.95998 11.2099 3.95998 11.2099C3.77998 10.6699 3.67359 10.0972 3.67359 9.49986C3.67359 8.90251 3.77998 8.32981 3.95998 7.78982L0.965384 5.46637Z" fill="#FBBC05"/>
<path d="M8.99987 4.08363C10.3253 4.08363 11.5035 4.5418 12.4444 5.42545L15.0217 2.84821C13.4589 1.39187 11.4299 0.5 8.99987 0.5C5.48171 0.5 2.4463 2.52091 0.965393 5.46637L3.9599 7.79001C4.67167 5.66271 6.65988 4.08363 8.99987 4.08363Z" fill="#EA4335"/>
</g>
<defs>
<clipPath id="clip0_1_1456">
<rect width="18" height="18" fill="white" transform="translate(0 0.5)"/>
</clipPath>
</defs>
</svg>
